<?xml version="1.0" standalone="no"?>
<!DOCTYPE svg PUBLIC "-//W3C//DTD SVG 20010904//EN"
 "http://www.w3.org/TR/2001/REC-SVG-20010904/DTD/svg10.dtd">
<svg version="1.0" xmlns="http://www.w3.org/2000/svg"
 width="1024.000000pt" height="1024.000000pt" viewBox="0 0 1024.000000 1024.000000"
 preserveAspectRatio="xMidYMid meet">

<g transform="translate(0.000000,1024.000000) scale(0.100000,-0.100000)"
fill="#000000" stroke="none">
<path d="M7185 9035 c-213 -58 -367 -222 -407 -435 -13 -70 -5 -201 17 -263 9
-27 14 -51 11 -55 -3 -3 -79 14 -168 37 -345 88 -676 143 -949 157 l-136 7 -6
54 c-21 198 -168 273 -537 273 -279 -1 -395 -72 -421 -258 -5 -36 -10 -67 -12
-68 -1 -1 -96 -9 -212 -18 -249 -19 -363 -35 -590 -82 -93 -19 -253 -51 -355
-70 -287 -55 -542 -137 -800 -257 l-93 -43 2 -70 c2 -88 17 -210 37 -299 36
-166 152 -458 221 -558 14 -20 24 -40 20 -43 -15 -15 -232 119 -397 246 -199
154 -351 343 -472 589 -29 58 -54 108 -56 110 -11 19 -52 -167 -74 -339 -17
-137 -17 -548 1 -655 60 -368 125 -562 275 -812 144 -241 301 -404 581 -604
47 -34 88 -65 91 -71 4 -6 -142 -9 -422 -6 l-429 3 -8 -55 c-8 -60 -63 -478
-101 -762 -23 -177 -23 -178 -60 -218 -20 -22 -36 -42 -36 -45 0 -3 28 -18 62
-35 35 -16 78 -39 95 -50 30 -18 32 -23 28 -62 -13 -105 -116 -1048 -130
-1187 -18 -183 -18 -191 -4 -191 6 0 61 29 122 64 277 157 395 213 794 376
105 44 214 90 242 105 l51 25 0 -720 0 -720 2160 0 2160 0 0 715 c0 712 0 715
20 715 12 0 31 -7 43 -15 12 -7 103 -45 202 -83 263 -102 406 -166 730 -330
159 -81 292 -148 296 -150 3 -1 5 8 2 20 -2 13 -37 324 -78 692 -41 368 -78
672 -82 676 -4 3 -52 24 -105 45 -54 21 -98 39 -98 40 0 1 61 32 136 70 l136
68 -6 31 c-13 62 -86 585 -106 761 -12 99 -23 191 -26 204 l-5 24 -435 -7
c-486 -8 -480 -9 -379 59 144 95 360 290 460 416 169 210 310 491 374 744 5
22 22 108 37 190 32 183 43 458 25 653 -11 117 -76 412 -90 412 -3 0 -26 -44
-51 -97 -108 -234 -302 -460 -555 -648 -160 -119 -354 -229 -372 -211 -3 3 11
30 31 61 54 80 140 265 176 375 40 122 69 293 77 447 l6 122 39 27 c99 69 181
188 208 303 18 75 8 229 -19 309 -62 183 -214 325 -393 367 -78 18 -226 18
-293 0z m230 -199 c138 -36 222 -117 260 -250 24 -81 16 -160 -24 -241 -36
-73 -82 -117 -161 -154 -47 -22 -68 -26 -150 -26 -84 0 -101 4 -146 27 -73 38
-158 120 -188 180 -21 41 -26 67 -26 124 0 119 46 210 142 280 93 69 188 88
293 60z m-2117 -278 c14 -14 17 -195 3 -216 -8 -13 -68 -31 -103 -32 -15 0
-18 9 -18 53 0 28 -4 58 -8 65 -6 9 -36 12 -113 10 l-104 -3 -3 -59 -3 -59
-51 6 c-28 4 -55 12 -60 19 -5 7 -7 57 -6 111 2 74 7 100 18 107 23 15 433 13
448 -2z m-478 -308 c53 -18 113 -62 129 -95 23 -47 25 -212 6 -370 -64 -533
-283 -1079 -624 -1557 -252 -353 -422 -542 -676 -750 -86 -71 -223 -168 -237
-168 -4 0 -8 178 -8 394 l0 395 51 26 c129 65 302 204 420 338 206 235 422
634 524 970 26 86 75 303 75 332 0 29 -237 15 -500 -30 -219 -37 -543 -133
-788 -234 -112 -45 -144 -71 -207 -166 -32 -48 -61 -83 -65 -78 -22 22 -158
468 -175 571 l-7 42 74 35 c79 36 538 183 672 215 208 49 271 62 406 84 80 14
242 32 360 40 118 9 231 18 250 20 63 7 284 -3 320 -14z m1115 -4 c200 -23
282 -36 380 -61 50 -12 135 -33 190 -45 234 -53 489 -149 623 -234 49 -31 49
-32 27 -181 -15 -101 -72 -305 -86 -305 -3 0 -62 27 -130 60 -304 147 -924
299 -1222 300 -75 0 -77 -1 -73 -22 3 -13 12 -59 21 -103 102 -500 407 -1063
714 -1319 107 -89 230 -175 297 -209 l52 -26 7 -318 c7 -296 4 -457 -9 -470
-9 -10 -113 58 -224 146 -362 286 -751 769 -973 1206 -212 419 -338 842 -369
1237 -17 220 -4 261 95 308 109 52 167 61 370 55 99 -3 239 -11 310 -19z
m1468 -319 c16 -19 18 -32 12 -97 -17 -197 -50 -336 -121 -503 -45 -108 -71
-124 -101 -63 -16 34 -15 37 26 150 64 176 111 387 111 498 0 50 0 50 28 44
15 -4 35 -17 45 -29z m-1013 -529 c50 -34 72 -71 78 -127 6 -66 -2 -93 -40
-136 -44 -51 -82 -68 -135 -61 -104 14 -163 72 -163 162 0 134 157 232 260
162z m1821 -197 c-19 -305 -80 -539 -206 -797 -130 -268 -303 -450 -631 -670
-126 -84 -320 -175 -378 -178 l-31 -1 -3 93 -3 93 33 12 c76 27 270 132 358
195 116 82 308 271 379 372 103 147 225 423 246 559 l7 44 -43 -34 c-85 -68
-305 -207 -408 -259 -198 -99 -470 -200 -537 -200 l-35 0 3 92 c3 88 4 92 28
99 161 46 253 81 371 140 227 114 595 370 764 531 50 47 91 85 93 83 2 -2 -1
-80 -7 -174z m-4471 34 l0 -137 134 4 134 3 7 -97 c3 -54 4 -102 0 -108 -4 -6
-59 -10 -141 -10 l-135 0 2 -137 1 -138 -106 -3 -106 -3 0 136 0 135 -140 0
-140 0 0 105 0 105 58 0 c31 0 94 3 140 7 l82 6 0 127 c0 70 2 129 4 131 2 2
50 6 105 7 l101 4 0 -137z m-1655 47 c99 -95 378 -302 547 -404 265 -159 388
-211 621 -262 l27 -6 0 -95 c0 -94 0 -95 -24 -95 -33 0 -245 62 -346 101 -170
65 -486 248 -642 370 l-36 29 15 -67 c65 -289 263 -615 496 -813 122 -104 302
-215 424 -262 38 -15 42 -19 48 -62 10 -64 -2 -156 -21 -156 -27 0 -213 88
-317 150 -148 88 -267 179 -372 285 -232 234 -404 577 -466 935 -18 102 -39
420 -28 420 3 0 36 -31 74 -68z m4755 -24 c52 -35 73 -71 78 -131 5 -65 -14
-109 -61 -137 -41 -26 -129 -27 -177 -2 -94 47 -108 174 -28 249 51 48 134 57
188 21z m-311 -353 c70 -36 97 -121 63 -198 -25 -56 -66 -80 -138 -80 -91 0
-153 54 -161 140 -4 40 0 55 23 90 46 70 133 90 213 48z m-1359 -63 c26 -21
23 32 41 -778 13 -561 13 -552 -51 -566 -19 -4 -79 -5 -134 -2 -152 10 -138
-47 -131 547 3 276 8 562 11 636 6 123 8 136 30 158 21 21 32 23 117 23 76 0
99 -4 117 -18z m-2530 -368 c19 -13 76 -58 125 -99 150 -127 276 -204 458
-279 37 -15 38 -16 35 -63 l-3 -48 -35 2 c-54 3 -189 64 -287 129 -142 94
-337 295 -370 379 -5 14 -2 16 18 10 13 -4 40 -18 59 -31z m5020 25 c0 -44
-191 -235 -326 -324 -103 -69 -263 -151 -347 -179 -67 -23 -77 -17 -77 45 0
44 4 47 105 89 153 62 204 93 557 338 62 42 88 51 88 31z m508 -1456 c18 -142
32 -265 32 -275 0 -10 -28 -32 -72 -56 -40 -22 -112 -65 -159 -95 l-86 -54 -7
111 c-10 172 -27 296 -43 312 -22 21 -265 20 -283 -1 -16 -19 -3 -307 36 -790
20 -257 29 -325 42 -344 16 -22 159 -85 234 -104 47 -12 51 11 39 221 -14 235
-17 254 -47 297 -13 20 -24 38 -24 40 0 15 39 0 113 -42 46 -27 128 -73 184
-103 l101 -55 6 -70 c43 -495 63 -699 72 -754 l5 -34 -33 22 c-18 12 -60 35
-93 51 -99 47 -624 267 -717 300 -49 18 -88 35 -88 39 0 3 -34 51 -75 105 -41
54 -75 107 -75 118 0 25 -56 925 -70 1123 -9 139 -9 140 13 154 12 8 43 37 70
64 l47 50 228 8 c125 5 256 10 292 12 36 2 124 4 195 5 l130 2 33 -257z
m-5535 227 l419 0 -7 -187 c-4 -104 -9 -190 -11 -192 -2 -2 -21 14 -42 37
l-39 42 -209 0 c-115 0 -214 -4 -221 -8 -7 -4 -20 -89 -32 -216 -27 -267 -27
-249 7 -242 15 4 87 15 161 26 108 15 138 23 157 41 29 28 29 35 6 -156 l-18
-140 -54 -8 c-88 -14 -303 -57 -308 -62 -6 -6 -59 -455 -68 -579 l-7 -95 32
-37 c18 -20 29 -40 24 -44 -4 -4 -42 -19 -84 -34 -42 -15 -138 -58 -214 -95
l-137 -68 6 36 c17 96 28 199 51 471 14 162 34 378 45 480 49 457 87 906 79
928 -5 13 -26 44 -47 70 l-37 45 64 -6 c35 -4 253 -7 484 -7z m2620 -115 c-19
-41 -32 0 174 -584 68 -195 134 -389 145 -430 17 -58 31 -86 62 -120 l41 -44
-56 7 c-31 3 -129 9 -217 12 -89 4 -162 9 -162 11 0 2 7 14 15 27 14 20 13 29
-8 92 l-24 69 -246 3 -245 2 -19 -62 c-17 -55 -18 -67 -6 -97 7 -18 13 -35 13
-37 0 -2 -30 -4 -67 -4 -38 0 -130 -5 -207 -11 -76 -5 -141 -7 -144 -4 -3 3
13 25 36 48 40 41 48 60 140 337 54 162 132 400 172 527 l74 233 -22 23 c-12
13 -22 26 -22 30 0 4 133 7 295 7 l295 0 -17 -35z m745 19 c454 -6 462 -7 462
-27 0 -11 12 -76 26 -144 14 -69 23 -127 21 -129 -2 -2 -16 5 -30 17 -23 18
-45 21 -171 26 -134 6 -144 5 -147 -12 -2 -10 2 -221 9 -469 l13 -451 26 -27
c15 -15 24 -30 21 -33 -2 -3 -49 2 -104 9 -54 8 -141 18 -191 22 -95 7 -106
13 -77 45 14 16 15 59 4 461 -6 244 -13 449 -15 456 -3 9 -42 12 -146 12 -127
0 -144 -2 -171 -21 -16 -12 -31 -20 -33 -18 -2 2 -1 70 2 152 5 129 8 147 22
143 9 -3 224 -8 479 -12z m-1710 -31 l-37 -38 -11 -500 c-13 -610 -14 -624
-43 -629 -36 -8 -278 -28 -281 -25 -2 2 -54 96 -116 209 -113 205 -236 418
-263 455 -14 18 -15 17 -26 -20 -19 -63 -38 -652 -23 -676 16 -26 7 -39 -26
-39 -32 0 -291 -45 -339 -59 -18 -5 -33 -7 -33 -4 0 2 15 23 33 46 l34 42 22
530 c12 292 21 576 21 633 l0 102 163 0 162 0 100 -180 c135 -243 286 -500
295 -500 7 0 11 65 26 456 l7 160 -33 37 -32 37 218 0 218 0 -36 -37z m2732
10 c0 -4 -12 -19 -26 -34 l-27 -28 12 -208 c6 -114 16 -318 22 -453 5 -135 14
-321 18 -413 l9 -168 33 -35 c39 -40 31 -42 -66 -20 -33 8 -121 24 -195 36
-74 12 -137 23 -139 26 -2 2 6 15 19 29 l23 24 -12 233 c-6 128 -16 395 -22
593 l-12 360 -30 33 -31 32 212 0 c117 0 212 -3 212 -7z m-2035 -1124 c24 -7
57 -29 82 -54 38 -38 43 -47 43 -89 0 -55 -18 -94 -60 -129 -41 -35 -89 -47
-187 -47 l-83 0 0 149 c0 82 -3 156 -6 165 -5 14 6 16 82 16 49 0 107 -5 129
-11z m365 -119 l0 -30 -60 0 c-47 0 -60 -3 -60 -15 0 -10 11 -15 35 -15 31 0
35 -3 35 -25 0 -22 -4 -25 -35 -25 -24 0 -35 -5 -35 -15 0 -12 13 -15 60 -15
l60 0 0 -30 0 -30 -95 0 -95 0 0 115 0 115 95 0 95 0 0 -30z m-1340 -375 l0
-115 -130 0 -130 0 2 -385 3 -385 -65 0 c-36 0 -103 -3 -150 -7 -84 -6 -85 -6
-67 14 15 18 17 52 17 392 l0 373 -136 -4 -137 -3 7 74 c3 41 6 94 6 118 l0
43 390 0 390 0 0 -115z m770 33 c0 -46 3 -114 6 -153 l7 -70 -35 33 -34 32
-167 0 -168 0 3 -82 3 -83 133 -3 132 -3 0 -99 0 -100 -134 0 -134 0 -4 -81
c-2 -44 -1 -83 1 -85 2 -2 80 -4 172 -4 l167 0 27 31 c14 17 27 30 29 28 2 -2
6 -67 8 -144 l3 -140 -347 0 c-192 0 -348 2 -348 6 0 3 9 14 20 24 20 18 21
27 18 497 l-3 478 323 0 322 0 0 -82z m581 -154 c62 -129 116 -234 120 -234 8
0 162 308 208 415 l22 51 152 -1 152 0 3 -485 3 -485 22 -18 c22 -19 22 -19
-18 -13 -22 3 -91 6 -152 6 l-113 0 0 308 0 307 -63 -121 c-122 -236 -212
-404 -217 -404 -3 0 -66 118 -140 261 l-135 261 -3 -288 c-2 -257 -1 -289 14
-306 10 -10 15 -18 13 -18 -2 0 -70 -2 -152 -3 -136 -2 -163 2 -137 18 6 4 10
171 10 469 0 450 -1 463 -20 481 -11 10 -20 22 -20 26 0 5 76 8 169 7 l169 -1
113 -233z m1099 -140 l0 -366 28 -28 c34 -34 109 -47 170 -30 74 19 72 10 72
422 l0 368 130 0 130 0 0 -397 c0 -241 -4 -413 -10 -435 -14 -49 -95 -121
-167 -148 -206 -77 -488 -23 -584 112 l-24 33 -3 418 -3 417 131 0 130 0 0
-366z m-3150 -899 l0 -75 70 0 c63 0 70 -2 70 -20 0 -19 -7 -20 -95 -20 l-95
0 0 95 c0 95 0 95 25 95 24 0 25 -2 25 -75z m328 53 c3 -15 -4 -16 -52 -11
-52 5 -56 4 -56 -16 0 -18 6 -21 40 -21 33 0 40 -3 40 -20 0 -17 -7 -20 -40
-20 -33 0 -40 -3 -40 -20 0 -18 7 -20 55 -20 48 0 55 -2 55 -20 0 -18 -7 -20
-80 -20 l-80 0 0 95 0 96 77 -3 c64 -2 78 -6 81 -20z m226 -70 l43 -93 -26 -3
c-18 -3 -30 3 -40 17 -19 30 -100 30 -108 1 -4 -14 -14 -20 -34 -20 -16 0 -29
3 -29 6 0 4 21 47 47 95 42 80 49 89 75 89 27 0 32 -7 72 -92z m252 78 c15
-12 16 -17 7 -27 -9 -9 -18 -10 -37 -1 -44 20 -106 -11 -106 -53 0 -36 32 -57
81 -53 47 3 68 28 24 28 -45 0 -22 25 26 28 l45 3 -4 -40 c-3 -34 -8 -41 -34
-50 -65 -23 -155 -4 -177 37 -25 47 -4 113 43 132 34 14 110 11 132 -4z m134
-50 c0 -75 11 -89 67 -84 l38 3 3 73 c3 69 4 72 27 72 24 0 25 -2 25 -70 0
-62 -3 -74 -25 -95 -20 -21 -34 -25 -80 -25 -46 0 -60 4 -80 25 -22 21 -25 33
-25 95 0 68 1 70 25 70 24 0 25 -2 25 -64z m370 47 c0 -15 -8 -17 -49 -15 -42
3 -49 1 -54 -17 -5 -19 -1 -21 39 -21 37 0 44 -3 44 -20 0 -17 -7 -20 -40 -20
-33 0 -40 -3 -40 -20 0 -17 7 -20 50 -20 43 0 50 -3 50 -20 0 -18 -7 -20 -77
-20 l-78 0 3 95 3 95 75 0 c64 0 74 -2 74 -17z m374 -12 c95 -89 -43 -203
-179 -147 -74 31 -76 129 -2 162 50 22 150 14 181 -15z m246 9 c0 -18 -5 -19
-60 -13 -57 5 -60 5 -60 -16 0 -18 6 -21 40 -21 33 0 40 -3 40 -20 0 -17 -7
-20 -40 -20 l-40 0 0 -40 c0 -35 -3 -40 -22 -40 -22 0 -23 3 -23 95 l0 95 83
0 c75 0 82 -2 82 -20z m180 -55 l0 -75 64 0 c55 0 64 -3 69 -20 5 -19 0 -20
-91 -20 l-97 0 0 95 0 95 28 0 27 0 0 -75z m320 71 c0 -2 3 -11 6 -19 5 -13
-4 -14 -50 -10 -52 5 -56 4 -56 -16 0 -18 6 -21 40 -21 33 0 40 -3 40 -20 0
-17 -7 -20 -40 -20 -33 0 -40 -3 -40 -20 0 -18 7 -20 54 -20 49 0 54 -2 49
-20 -5 -18 -14 -20 -79 -20 l-74 0 0 95 0 95 75 0 c41 0 75 -2 75 -4z m235
-10 c17 -12 17 -16 6 -30 -10 -12 -17 -14 -25 -6 -11 11 -76 13 -92 2 -23 -15
-33 -46 -22 -67 6 -11 16 -23 22 -27 13 -9 68 -10 90 -2 26 10 18 24 -14 24
-22 0 -28 4 -24 15 4 10 21 15 53 15 l47 0 -4 -39 c-3 -34 -9 -41 -34 -50 -68
-24 -154 -5 -178 38 -24 46 -2 113 44 131 33 14 110 11 131 -4z m245 10 c0 -2
2 -11 5 -18 4 -11 -6 -14 -47 -13 -42 0 -53 -3 -56 -17 -3 -15 4 -18 37 -18
34 0 41 -3 41 -20 0 -17 -7 -20 -40 -20 -33 0 -40 -3 -40 -20 0 -18 7 -20 55
-20 48 0 55 -2 55 -20 0 -18 -7 -20 -77 -20 l-78 0 0 95 0 95 73 0 c39 0 72
-2 72 -4z m162 -53 l58 -57 0 57 c0 54 1 57 25 57 25 0 25 0 25 -95 0 -92 -1
-95 -22 -95 -14 0 -46 24 -86 63 l-64 62 4 -63 c3 -60 2 -62 -22 -62 -25 0
-25 0 -25 95 0 94 0 95 25 95 16 0 43 -19 82 -57z m311 46 c31 -16 57 -50 57
-76 0 -66 -53 -103 -147 -103 l-58 0 0 95 0 95 63 0 c35 0 73 -5 85 -11z m273
-2 c4 -3 1 -13 -5 -21 -10 -11 -19 -13 -39 -5 -27 11 -82 3 -82 -11 0 -5 17
-12 38 -15 88 -15 110 -32 99 -77 -11 -41 -74 -58 -156 -42 -24 5 -31 12 -31
30 0 21 2 22 29 13 35 -12 106 -8 105 6 -1 6 -24 15 -53 21 -61 14 -81 28 -81
60 0 38 36 56 107 52 34 -2 65 -7 69 -11z"/>
<path d="M4922 4860 c-52 -157 -120 -399 -114 -405 10 -10 321 -5 327 5 9 15
-160 500 -174 500 -4 0 -21 -45 -39 -100z"/>
<path d="M4870 3885 c0 -41 -1 -78 -2 -82 -6 -18 78 -13 109 6 83 51 32 151
-77 151 l-30 0 0 -75z"/>
<path d="M3772 2365 c-16 -35 -16 -35 18 -35 l31 0 -16 30 c-9 17 -17 30 -19
30 -1 0 -8 -11 -14 -25z"/>
<path d="M4868 2412 c-28 -3 -58 -35 -58 -59 0 -45 91 -70 138 -37 57 40 3
106 -80 96z"/>
<path d="M6600 2355 c0 -54 0 -55 30 -55 31 0 70 30 70 53 0 30 -31 57 -66 57
l-34 0 0 -55z"/>
<path d="M2645 3178 c-222 -118 -446 -242 -493 -272 l-42 -26 0 -123 c0 -107
3 -128 23 -167 24 -49 57 -67 100 -56 42 10 57 54 68 194 10 128 16 149 42
139 11 -4 17 -30 21 -94 19 -282 31 -332 84 -351 31 -10 79 -5 88 9 3 5 10 82
15 172 18 310 37 432 68 432 14 0 16 -90 19 -932 l2 -383 2479 0 2478 0 5 43
c2 23 4 318 3 655 0 336 2 612 5 612 41 -1 59 -93 81 -430 7 -108 16 -178 23
-182 16 -11 64 -10 87 2 39 21 51 67 63 244 11 173 16 196 41 196 19 0 22 -18
30 -140 9 -137 29 -186 79 -196 48 -8 82 14 95 63 6 21 11 99 11 173 l0 135
-112 72 c-112 71 -546 293 -574 293 -12 0 -14 -99 -14 -680 l0 -680 -2300 0
-2300 0 0 680 c0 538 -3 680 -12 679 -7 0 -80 -36 -163 -81z"/>
</g>
</svg>
